<?xml version="1.0" standalone="no"?>
<!DOCTYPE svg PUBLIC "-//W3C//DTD SVG 20010904//EN"
 "http://www.w3.org/TR/2001/REC-SVG-20010904/DTD/svg10.dtd">
<svg version="1.0" xmlns="http://www.w3.org/2000/svg"
 width="300.000000pt" height="112.000000pt" viewBox="0 0 300.000000 112.000000"
 preserveAspectRatio="xMidYMid meet">
<metadata>
Created by potrace 1.10, written by Peter Selinger 2001-2011
</metadata>
<g transform="translate(0.000000,112.000000) scale(0.100000,-0.100000)"
fill="#000000" stroke="none">
<path d="M330 987 c-71 -21 -114 -45 -160 -90 -161 -158 -156 -501 11 -651 70
-63 142 -89 249 -88 190 0 307 98 354 295 l7 28 -71 -3 -71 -3 -19 -55 c-53
-157 -236 -200 -350 -81 -58 59 -82 129 -82 239 0 98 13 147 55 208 79 118
250 128 344 20 18 -20 36 -48 39 -61 6 -23 10 -25 70 -25 35 0 67 1 71 3 11 3
5 24 -24 84 -34 74 -101 137 -171 163 -70 27 -190 35 -252 17z m219 -48 c77
-26 152 -94 167 -153 5 -22 3 -26 -15 -26 -13 0 -34 19 -60 54 -69 93 -179
128 -293 94 -56 -16 -122 -79 -155 -146 -26 -53 -28 -65 -28 -182 0 -114 2
-130 26 -181 29 -61 81 -119 132 -146 44 -24 170 -24 213 -1 43 23 92 77 124
135 32 57 66 67 63 19 -5 -74 -103 -172 -196 -197 -65 -17 -194 -8 -248 19
-130 63 -203 222 -185 399 17 169 102 280 244 318 53 14 158 11 211 -6z"/>
<path d="M1989 845 l3 -85 -51 0 -51 0 0 -55 0 -55 50 0 50 0 0 -190 c0 -214
7 -246 61 -279 38 -23 109 -33 163 -23 l39 7 2 56 1 56 -47 -5 c-38 -3 -51 0
-68 17 -19 19 -21 32 -21 167 l0 146 60 -4 60 -4 0 85 0 86 -60 -3 -60 -4 0
86 0 86 -67 0 -68 0 4 -85z m91 -14 c0 -62 34 -108 83 -113 29 -3 32 -6 32
-38 0 -31 -3 -35 -35 -41 -19 -4 -45 -19 -58 -34 -21 -25 -23 -35 -22 -144 1
-64 6 -133 11 -153 10 -40 53 -78 88 -78 12 0 21 -6 21 -15 0 -19 -76 -21
-115 -3 -48 22 -55 51 -55 238 0 191 -7 220 -60 238 -33 12 -41 32 -12 32 35
0 65 46 70 105 4 50 7 55 28 55 22 0 24 -4 24 -49z"/>
<path d="M1039 767 c-85 -24 -140 -81 -154 -160 l-7 -38 68 3 c63 3 69 5 72
25 6 38 48 63 108 63 63 0 94 -23 94 -67 0 -52 -19 -64 -140 -88 -94 -19 -132
-35 -172 -73 -77 -72 -53 -207 46 -259 73 -38 216 -9 266 54 l20 25 10 -26
c12 -33 66 -66 107 -66 56 0 63 7 63 67 0 34 -4 52 -10 48 -6 -3 -19 -4 -29 0
-18 5 -19 20 -23 189 -3 179 -4 183 -30 223 -49 75 -180 111 -289 80z m203
-58 c64 -33 72 -61 76 -254 3 -166 4 -171 29 -197 14 -15 23 -33 20 -41 -9
-23 -51 -9 -88 29 -18 19 -39 34 -46 34 -9 0 -7 10 7 33 27 44 27 125 0 160
-24 30 -25 41 -5 57 26 22 29 76 6 113 -46 75 -164 81 -231 12 -51 -53 -93
-43 -54 13 46 66 194 87 286 41z m-27 -366 c-8 -33 -82 -73 -135 -73 -50 0
-80 21 -80 57 0 53 18 66 131 97 31 9 63 23 70 33 12 14 14 10 17 -37 2 -30 1
-64 -3 -77z m-198 86 c-64 -48 -74 -114 -23 -165 31 -31 39 -34 98 -35 l63 -1
-35 -15 c-23 -10 -55 -14 -93 -11 -49 4 -63 9 -89 36 -27 27 -32 39 -32 81 0
36 6 57 20 72 27 30 75 59 99 59 18 -1 17 -3 -8 -21z"/>
<path d="M1743 769 c-29 -8 -58 -36 -90 -85 -11 -16 -12 -12 -7 29 l6 47 -61
0 c-33 0 -63 1 -66 3 -3 1 -6 -132 -8 -296 l-2 -297 68 0 67 0 1 183 c0 207 7
240 59 275 28 19 45 23 88 20 l52 -3 0 61 c0 77 -20 88 -107 63z m57 -53 c0
-19 -6 -22 -60 -30 l-45 -7 28 26 c31 27 77 34 77 11z m-185 -26 c8 -16 22
-33 31 -38 13 -8 13 -13 -8 -48 -21 -36 -23 -54 -28 -214 -5 -167 -6 -175 -25
-175 -19 0 -20 8 -23 240 -1 132 0 245 2 252 9 23 35 14 51 -17z"/>
<path d="M2397 755 c-51 -17 -63 -29 -83 -81 -44 -116 31 -234 140 -220 74 9
126 72 126 154 0 112 -86 181 -183 147z m88 -70 c53 -52 22 -175 -45 -175 -47
0 -73 43 -68 109 7 85 63 117 113 66z"/>
<path d="M2715 755 c-47 -17 -70 -42 -86 -95 -25 -84 15 -176 87 -200 97 -32
184 40 184 152 0 109 -87 176 -185 143z m90 -70 c53 -52 22 -175 -44 -175 -69
0 -97 124 -41 180 27 27 56 25 85 -5z"/>
<path d="M2440 268 c0 -26 40 -77 72 -94 42 -22 124 -22 166 0 32 17 72 68 72
94 0 20 -58 15 -70 -7 -5 -11 -26 -25 -46 -31 -45 -15 -108 0 -127 30 -13 22
-67 28 -67 8z"/>
</g>
</svg>
